<?xml version="1.0" standalone="no"?>
<!DOCTYPE svg PUBLIC "-//W3C//DTD SVG 20010904//EN"
 "http://www.w3.org/TR/2001/REC-SVG-20010904/DTD/svg10.dtd">
<svg version="1.0" xmlns="http://www.w3.org/2000/svg"
 width="29.000000pt" height="34.000000pt" viewBox="0 0 29.000000 34.000000"
 preserveAspectRatio="xMidYMid meet">

<g transform="translate(0.000000,34.000000) scale(0.100000,-0.100000)"
fill="#000000" stroke="none">
<path d="M32 273 c21 -5 51 -135 42 -181 -6 -28 -4 -32 15 -32 12 0 21 6 21
15 0 10 11 15 35 15 24 0 35 -5 35 -15 0 -8 9 -15 20 -15 13 0 20 7 20 20 0
16 -8 19 -62 22 -80 4 -78 21 3 28 60 5 63 6 75 40 22 60 22 60 -76 60 -87 0
-90 1 -96 25 -4 18 -13 25 -28 24 -15 -1 -16 -3 -4 -6z m202 -61 c2 -4 -2 -22
-9 -40 -14 -31 -16 -32 -73 -32 -64 0 -72 7 -72 56 0 23 2 24 74 24 41 0 77
-3 80 -8z m-134 -132 c0 -5 -4 -10 -10 -10 -5 0 -10 5 -10 10 0 6 5 10 10 10
6 0 10 -4 10 -10z m110 0 c0 -5 -4 -10 -10 -10 -5 0 -10 5 -10 10 0 6 5 10 10
10 6 0 10 -4 10 -10z"/>
</g>
</svg>
